<svg slot="icon" fill="white" height="150px" viewBox="0 0 127 40" width="150px"
    xmlns="http://www.w3.org/2000/svg">
    <path
        d="M37.0675 34.7316C30.1366 34.7316 25.2069 29.122 25.2069 21.9511C25.2069 14.8292 30.1366 9.17067 37.0675 9.17067C43.9985 9.17067 48.9771 14.8292 48.9771 21.9511C48.9771 29.122 43.7057 34.7316 37.0675 34.7316ZM37.0675 3.90255C26.5736 3.90255 19.5449 11.9024 19.5449 21.9511C19.5449 32.0001 26.5736 40 37.0675 40C47.5616 40 54.639 32.0001 54.639 21.9511C54.639 12.0487 47.5616 3.90255 37.0675 3.90255Z">
    </path>
    <path
        d="M70.8645 32.4878H70.7669L60.9561 4.39027H54.6597L68.0823 39.5122H73.5002L86.9228 4.39027H80.8704L70.8645 32.4878Z">
    </path>
    <path d="M5.46671 4.33233H0V39.5122H15.4427L20.6498 34.3413H5.46671V4.33233Z">
    </path>
    <path
        d="M109.812 29.9972L105.396 34.3901H96.1088V23.7072H101.01L105.396 19.3171H109.585C113.246 19.3171 115.296 21.4634 115.296 24.6341C115.296 27.7866 113.331 29.9101 109.812 29.9972ZM96.1088 9.51204H101.004L105.396 5.12188H109.293C112.319 5.12188 114.271 6.92683 114.271 9.65856C114.271 12.2874 112.657 14.044 109.799 14.2278L105.396 18.634H96.1088V9.51204ZM115.345 16.8293V16.7317C115.98 16.4878 119.933 13.9999 119.933 9.12195C119.933 3.65857 115.735 -7.62939e-06 110.122 -7.62939e-06H109.78L105.396 4.39029H90.6421V39.5121H101.001L105.396 35.1219H110.318C116.419 35.1219 120.958 31.0731 120.958 25.1219C120.958 20.0487 117.297 17.5121 115.345 16.8293Z">
    </path>
    <path
        d="M124.102 5.66608V5.02446H124.526C124.76 5.02446 124.888 5.13839 124.888 5.34531C124.888 5.55511 124.763 5.66608 124.526 5.66608H124.102ZM125.268 5.34531C125.268 4.92908 124.978 4.67054 124.511 4.67054H123.727V6.96912H124.102V6.02007H124.346L124.924 6.96912H125.359L124.739 5.99935C125.076 5.92518 125.268 5.68933 125.268 5.34531Z">
    </path>
    <path
        d="M124.485 7.38385C123.622 7.38385 122.92 6.68225 122.92 5.81988C122.92 4.95758 123.622 4.25598 124.485 4.25598C125.348 4.25598 126.05 4.95758 126.05 5.81988C126.05 6.68225 125.348 7.38385 124.485 7.38385ZM124.485 3.87621C123.412 3.87621 122.54 4.74814 122.54 5.81988C122.54 6.89163 123.412 7.76355 124.485 7.76355C125.557 7.76355 126.43 6.89163 126.43 5.81988C126.43 4.74814 125.557 3.87621 124.485 3.87621Z">
    </path>
</svg>