<svg xmlns="http://www.w3.org/2000/svg" width="288" height="360"><path d="M21.978 60.479v238.996c69.281 63.092 171.251 66.29 244.043.001l.002-57.07V60.48C195.044-4.157 92.953-4.161 21.978 60.479" fill="#c9d0dc"/><path d="M259.012 63.576c-65.184-59.361-164.84-59.361-230.025 0v232.801c65.185 59.363 164.84 59.363 230.025.002l.001-.002V63.576h-.001" fill="#010a10"/><path d="M48.686 287.356c55.466 45.108 135.16 45.104 190.63 0l-.001-214.757C183.848 27.49 104.152 27.493 48.684 72.6zm-7.853 3.69L40.83 68.91c61.557-51.311 146.225-50.107 206.336-.002l.002 222.136c-60.778 50.74-145.558 50.74-206.336 0" fill="#107fcb"/><path d="M208.653 118.024c0 33.94-27.954 61.455-62.436 61.455s-62.436-27.515-62.436-61.455 27.954-61.455 62.436-61.455 62.436 27.515 62.436 61.455" fill="#fff"/><path d="M162.103 135.58h6.592l-.334-9.348zm25.042-.127h6.558l-.318-9.313zm7.096 11.244h7.214c-10.468 19.498-31.278 32.782-55.239 32.782-34.482 0-62.436-27.515-62.436-61.455s27.954-61.455 62.436-61.455c34.484 0 62.436 27.515 62.436 61.455 0 9.085-2.003 17.71-5.596 25.47l-1.805-25.9h-16.203l-1.91 6.649h2.515l-7.993 12.484-1.125-19.134h-16.428l-1.872 6.619 2.506.03-10.725 16.027-8.839-.038c-.924 0-4.498-.844-4.498-5.192 0-4.359 4.214-10.676 8.492-10.676l1.8.042-.939 3.298h7.867l2.825-10.11H144.6c-7.536 0-13.625 5.3-15.55 10.767l3.15-10.767h-10.792l-1.895 6.65 2.786-.007-2.807 9.733-7.076-16.376h-10.07l-1.895 6.65h2.766l-6.26 22.454h8.064s3.118-11.134 3.92-13.992c1.14 2.704 5.886 13.992 5.886 13.992h8.978l4.12-14.269a19.187 19.187 0 00-.013 6.545c.787 4.672 5.411 7.724 10.448 7.724h16.301l2.816-4.185h11.504l.234 4.185h10.164l2.629-4.185h11.767l.466 4.185M212.641 151.67c0 2.15-1.777 3.9-3.962 3.9-2.187 0-3.963-1.75-3.963-3.9 0-2.189 1.739-3.903 3.963-3.903 2.221 0 3.962 1.714 3.962 3.902m-3.962-4.946c-2.772 0-5.027 2.218-5.027 4.946 0 2.728 2.255 4.947 5.027 4.947 2.772 0 5.026-2.219 5.026-4.947 0-2.773-2.208-4.946-5.026-4.946" fill="#45a5e1"/><path d="M209.963 150.6c0 .483-.462.808-.892.808h-1.306v-1.661h1.306c.429 0 .892.325.892.853m1.13 0c0-1.119-1.049-1.81-2.022-1.81h-2.416v5.78h1.11v-2.182h.708l1.455 2.183h1.345l-1.525-2.242c.479-.12 1.345-.597 1.345-1.729" fill="#45a5e1"/><path d="M193.405 283.743c-1.03-2.845-3.67-5.55-4.664-9.043 0 0-8.028 3.019-19.992-.653-5.105-1.568-10.925-1.374-13.197-.822-2.428-10.294 2.46-14.808-2.47-22.957a20.104 20.104 0 01-1.797-3.832c2.324-7.755 5.026-12.172 6.54-14.224 7.388 2.02 14.983 3.386 23.179 3.123v.001s1.421-2.883-1.557-20.999c-2.98-18.116-9.454-16.416-9.454-16.416 1.067 2.282 1.639 5.4 1.639 5.4l-.93.5c6.175 8.647 2.483 25.384 2.483 25.384-43.912-19.213-79.078-17.708-79.01-8.481 2.001-.352 3.96-.607 5.883-.777.06.817.349 1.24.349 1.24s2.063-1.262 4.924-1.503c.12-.001.241-.005.36-.007 11.61-.082 21.569 3.007 31.6 6.295-1.85 8.29-5.21 33.325 13.398 57.393 0 0 1.502-.185 3.611-.532 2.063 1.104 5.053 2.734 7.508 4.187 9.544 5.65 23.383 15.044 23.113 21.868 6.004-6.737-.904-12.719-1.598-17.659-4.359-.096-8.44-2.478-12.119-5.94a43.695 43.695 0 01-3.405-3.617c16.24-.874 22.428 2.43 24.265 8.584 1.995-2.45 2.065-4.516 1.341-6.513" fill="#fff"/><path d="M192.064 290.256c1.995-2.45 2.065-4.516 1.341-6.513-.056-.154-.132-.304-.196-.457-19.009-11.58-42.52.08-42.52.08s1.502-.186 3.611-.533c2.039 1.091 4.983 2.696 7.421 4.136 4.35-.99 7.368-1.517 9.364-1.798a43.869 43.869 0 01-3.286-3.5c16.24-.873 22.428 2.43 24.265 8.585" fill="#c9d0dc"/><path d="M146.853 215.23c-1.509-.509-1.876-5.002-.366-9.467 1.508-4.467 5.041-6.886 8.074-5.951 3.032.936 5.27 4.1 3.147 8.637-2.54 5.432-8.825 7.463-10.855 6.78" fill="#fff"/><path d="M157.697 206.45c.414-.789.659-1.538.778-2.246.18 1.22-.018 2.645-.767 4.245-2.54 5.432-8.824 7.463-10.856 6.78-.599-.201-1.015-1.041-1.208-2.252 2.907.352 9.448-1.552 12.053-6.526" fill="#c9d0dc"/><path d="M107.456 190.536c-.35 4.683 3.17 8.76 7.864 9.11 4.692.349 8.78-3.165 9.13-7.847.35-4.682-3.172-8.76-7.864-9.108-4.693-.35-8.78 3.162-9.13 7.845" fill="#fff"/><path d="M120.911 187.7a8.455 8.455 0 00-.606-3.841 8.498 8.498 0 014.146 7.941c-.35 4.681-4.437 8.193-9.13 7.845a8.519 8.519 0 01-7.258-5.266 8.508 8.508 0 003.718 1.168c4.693.348 8.781-3.164 9.13-7.847M172.96 208.43l-.015.007c2.855 8.911.24 20.768.24 20.768 1.268.55 3.288 1.405 3.288 1.405 1.294-14.486-1.838-20.209-3.513-22.18M105.692 219.677c11.242-.08 21.834 3.106 31.6 6.292.285-1.208.564-2.237.805-3.058-18.823-5.862-30.158-5.246-32.405-3.234M147.392 257.903l2.797-.72c.458 6.796.13 11.597-.23 14.51 1.246-.426 2.949-.844 5.117-1.028-1.172-8.545 2.507-12.957-1.995-20.397a20.104 20.104 0 01-1.796-3.832c2.324-7.755 5.024-12.172 6.54-14.224 7.388 2.02 14.982 3.386 23.176 3.123-5.909-.967-11.488-2.596-15.916-4.132.29-1.138.748-1.875.748-1.875-5.956-.518-10.348-1.977-10.348-1.977s-10.91 8.906-8.093 30.552" fill="#c9d0dc"/></svg>